<svg width="1269" height="1253" viewBox="0 0 1269 1253" fill="none" xmlns="http://www.w3.org/2000/svg">
<rect width="1269" height="1253" rx="128" fill="#40D1FF"/>
<path d="M863.681 936.301C886.027 975.988 910.311 1014.02 961.753 1014.02C1004.96 1014.02 1027.63 990.535 1027.63 958.051C1027.63 919.176 1004.19 905.371 956.651 882.738L930.591 870.591C855.382 835.706 805.361 791.994 805.361 699.662C805.361 614.568 864.94 549.811 958.039 549.811C1024.34 549.811 1071.97 574.916 1106.33 640.661L1025.14 697.402C1007.29 662.517 987.974 648.782 958.039 648.782C927.491 648.782 908.148 669.861 908.148 697.402C908.148 731.44 927.523 745.21 972.248 766.289L998.308 778.436C1086.95 819.712 1136.94 861.87 1136.94 956.639C1136.94 1058.75 1063.18 1114.72 964.175 1114.72C867.33 1114.72 812.336 1061.58 781.723 995.796L863.681 936.301ZM489.541 939.196C505.881 971.186 530.714 995.796 566.43 995.796C600.595 995.796 620.261 981.037 620.261 923.661V549.776H727.892V941.739C727.892 1060.62 664.825 1114.72 572.727 1114.72C489.509 1114.72 429.445 1053.07 404.968 995.796L489.541 939.196Z" fill="#000001"/>
</svg>
